<?xml version="1.0" encoding="UTF-8"?>
<svg width="64px" height="64px" viewBox="0 0 64 64" version="1.1" xmlns="http://www.w3.org/2000/svg" xmlns:xlink="http://www.w3.org/1999/xlink" style="background: #7DFAD2;">
    <!-- Generator: Sketch Beta 43.2 (39056) - http://www.bohemiancoding.com/sketch -->
    <title>Logo</title>
    <desc>Created with Sketch Beta.</desc>
    <defs></defs>
    <g id="Frontpage" stroke="none" stroke-width="1" fill="none" fill-rule="evenodd">
        <g id="Logo">
            <g id="Group" transform="translate(8.000000, 8.000000)">
                <path d="M34.5375303,17.28 C36.0626739,16.2428188 38.0597786,13.8141957 36.8928214,10.2113068 C35.9680978,7.35629485 30.7896578,5.9254046 27.9701061,4.47853835 C24.9831587,2.94577224 25.4951946,2.96837639 21.8113008,0.837887768 L0.361458522,0.837887768 C0.361458522,0.837887768 1.93760329,6.66199154 2.57691088,8.70205846 C4.29993899,14.2003392 6.94081911,17.28 6.94081911,17.28 L34.5375303,17.28 Z" id="Oval" fill="#BFBFBF"></path>
                <path d="M41.8996232,47.5226501 C44.2544631,46.0113986 48,43.1652766 48,36 C48,28.8347234 41.8996232,21.2571271 35.0826317,17.2686939 L6.91369998,17.2686939 C6.91369998,17.2686939 12.2625915,23.7703474 14.2930838,33.3642102 C16.0096888,41.4749884 13.6529239,47.5226501 13.6529239,47.5226501 L41.8996232,47.5226501 Z" id="Oval-2" fill="#333333"></path>
            </g>
        </g>
    </g>
</svg>