<?xml version="1.0" encoding="UTF-8"?>
<svg width="65px" height="90px" viewBox="0 0 65 90" version="1.1" xmlns="http://www.w3.org/2000/svg" xmlns:xlink="http://www.w3.org/1999/xlink">
    <!-- Generator: Sketch Beta 43.2 (39056) - http://www.bohemiancoding.com/sketch -->
    <title>noun_710361_cc</title>
    <desc>Created with Sketch Beta.</desc>
    <defs></defs>
    <g id="Frontpage" stroke="none" stroke-width="1" fill="none" fill-rule="evenodd">
        <g id="Frontpage:-Desktop" transform="translate(-56.000000, -15.000000)" fill-rule="nonzero" fill="#333333">
            <g id="noun_710361_cc" transform="translate(56.000000, 15.000000)">
                <g id="Group">
                    <path d="M37.254423,5.75846424 C37.1741224,5.67652485 37.0241733,5.78960121 37.0952558,5.88403636 C40.2189903,9.9963697 33.0708024,14.3987685 30.0673139,15.7536364 C27.3683319,16.6481515 24.5669365,17.19728 21.7299806,17.3879176 C18.4314459,17.884353 15.4028291,19.4967038 13.1492873,21.9560388 C12.9268218,22.1901806 13.1570715,22.6457636 13.4909745,22.5214206 C15.2391515,21.8628327 16.9498412,21.1057127 18.7006812,20.4497879 C20.8973691,19.8020391 23.165884,19.4291024 25.4543309,19.3395091 C28.12373,19.0920122 30.6792533,18.1389051 32.8587842,16.5779467 C34.9908128,15.1867702 36.8002407,13.3552003 38.1653842,11.2064097 C39.2352907,9.41208813 38.8498705,7.10710697 37.254423,5.75846424 L37.254423,5.75846424 Z" id="Shape"></path>
                    <path d="M41.6578461,23.0947915 C42.3173225,20.5687293 42.5336395,17.947419 42.2971782,15.3474218 C41.9324826,12.940478 41.0465649,10.6422095 39.7013382,8.61323273 C39.5546667,8.35184606 39.1773358,8.58865091 39.3065952,8.85126667 C40.3226364,11.4976759 40.5513605,14.3815201 39.965183,17.1550048 C39.5747488,19.6163605 39.0481631,22.0541789 38.3878497,24.4572388 C37.5293442,26.8982679 37.153646,29.4829326 37.2816679,32.06736 C37.5766497,34.6894206 38.8837879,37.0947515 39.2912315,39.6944836 C39.3571927,40.1111455 39.9227794,39.9390727 39.9614958,39.5949273 C40.2759382,36.8309067 39.7105564,34.2012667 39.7543939,31.4476933 C40.0865851,28.6030324 40.7247631,25.8025217 41.6578461,23.0947915 L41.6578461,23.0947915 Z" id="Shape"></path>
                    <path d="M31.1439976,48.1174436 C27.2621527,49.6334386 23.0503276,50.1037423 18.9297018,49.4813248 C16.9776149,49.1092373 14.9976473,48.9022912 13.0108097,48.8626824 C12.1828174,48.8968878 11.3616359,49.0275068 10.5638945,49.2518945 C10.701143,48.8626824 10.817497,48.4626133 10.9664218,48.0924521 C11.5551564,46.6380279 12.2307467,45.219657 12.9397273,43.8195176 L13.4080109,42.9267879 C14.2866769,43.2219837 15.2449539,43.1700978 16.0866097,42.7817552 C17.6058788,42.1136187 18.8180715,40.8982082 19.4821782,39.3771733 C20.6010397,36.3851211 20.2432295,33.0406247 18.5167273,30.352983 C18.4347879,30.2003709 18.1699188,30.3140618 18.2371091,30.4758921 C19.1412571,32.7676886 19.2859432,35.2891757 18.6498788,37.6693515 C18.2192244,38.9700139 17.388638,40.1013608 16.2767091,40.9018606 C15.6785111,41.2951735 14.9648611,41.4745787 14.2517818,41.4109091 C15.3862737,39.5857345 16.3030719,37.6339547 16.9834364,35.5954655 C17.0610739,35.3291624 16.70136,35.220183 16.5589903,35.4233927 C14.7241624,38.0710594 12.810263,40.6798048 11.1343976,43.4329685 C10.3721564,44.685617 9.70189212,46.0029976 9.06911515,47.3250897 C8.45081248,48.2193391 8.18027233,49.3085655 8.30830788,50.3881891 C7.92264289,50.6503643 7.51376253,50.8766439 7.08679636,51.0641891 C7.01319433,51.0896014 6.97253369,51.1683475 6.99443063,51.2430708 C7.01632756,51.3177941 7.09305901,51.3621397 7.16873576,51.3438073 C8.32928655,51.2111939 9.49897113,51.1769304 10.6652945,51.241383 C11.6188642,51.1799285 12.5687467,51.1559612 13.5237503,51.1532982 C15.7611055,51.146743 17.9363915,51.6773006 20.1542861,51.8856315 C24.2236648,52.5717839 28.3906253,51.4595931 31.5768424,48.8368715 C31.8853442,48.550903 31.5516461,47.9517212 31.1439976,48.1174436 Z" id="Shape"></path>
                    <path d="M36.9631285,37.9669964 C35.5564339,34.368423 31.7960303,33.5932764 28.886977,31.7207564 C28.7730812,31.6470109 28.643617,31.8203127 28.7446073,31.9110606 C31.0031968,33.471655 33.0444748,35.3253584 34.8148824,37.4235333 C35.570356,38.6738882 35.8307132,40.1616435 35.5447576,41.5942485 C35.2884921,42.9556715 34.1808764,43.8549564 33.7625758,45.1516473 C33.7218158,45.313995 33.7586199,45.4860665 33.8622241,45.6175363 C33.9658283,45.7490062 34.1245264,45.8250198 34.2919042,45.8233455 C38.0889758,45.7741818 37.9207952,40.4153455 36.9631285,37.9669964 Z" id="Shape"></path>
                    <path d="M30.9485721,34.5663067 C30.8747676,34.4508147 30.7338334,34.3975627 30.6020968,34.4353909 C30.4703602,34.473219 30.3791502,34.5931312 30.3778642,34.7301855 C30.30924,36.1329879 27.4858133,35.2994594 26.6905915,35.1210364 C24.2372108,34.4367586 22.0520609,33.0179267 20.428783,31.0552036 C20.392319,31.0175968 20.3333564,31.0135632 20.2921107,31.0458539 C20.250865,31.0781446 20.2406301,31.136352 20.2683867,31.1807758 C21.7213545,34.0678471 24.2895963,36.2369283 27.3790873,37.1863188 C29.3581285,37.6306352 32.4650655,37.1750521 30.9485721,34.5663067 Z" id="Shape"></path>
                    <path d="M45.4184545,57.5529697 C44.791641,56.1370141 43.9287581,54.8378755 42.866657,53.7110364 C42.5327519,53.3607956 42.1627923,53.0467969 41.7629333,52.7742642 C41.8619685,52.6524542 41.8927901,52.4888687 41.8448727,52.3393709 C41.1638616,50.8528753 39.6549661,49.9224962 38.0209661,49.9815648 C36.7670115,50.0090413 35.5781537,50.5453103 34.727617,51.4671261 C30.2045875,54.222308 25.1563873,56.0033239 19.9058048,56.6962933 C16.5099487,57.0967289 13.0917359,57.2769626 9.67259879,57.2358642 C8.02541212,57.2811358 6.40526545,57.1539248 4.76299515,57.0961576 C3.91144,57.0650206 2.30051152,57.4312897 2.17616848,56.3144558 C2.25949252,54.1491184 2.67449406,52.0093769 3.40669333,49.9698885 C4.19740848,46.2006764 4.94305697,42.4386339 6.07361576,38.7532048 C6.79297836,35.8392183 7.78598766,32.9996973 9.03941212,30.2724776 C10.5348061,27.4320485 13.4508242,26.4500048 15.5497018,24.2306764 C15.5781114,24.1996328 15.5826112,24.1535596 15.5607448,24.1176059 C15.5388785,24.0816522 15.495899,24.0644549 15.4552667,24.0754012 C13.9620735,24.4379631 12.4983173,24.9125061 11.0764255,25.4950012 C9.71448176,26.1907977 8.55546478,27.2267507 7.71178909,28.5023818 C5.96429137,31.5204291 4.71954897,34.8027271 4.02636,38.2205988 C2.81898303,42.2516073 2.12925818,46.3639406 1.11751152,50.4387867 C0.142770616,52.7128849 -0.0846835508,55.2377624 0.46793697,57.6494533 C1.43338788,59.6991673 4.93363394,59.1581624 6.79447758,59.2677564 C8.98635636,59.3959915 11.2523903,59.4230315 13.5116642,59.3363806 C13.2982121,63.2625067 11.1993345,66.7928655 10.6067079,70.6798655 C10.1203554,74.5334523 11.175105,78.4232232 13.5415721,81.50324 C12.8042958,81.7805245 12.1061407,82.1523597 11.4646133,82.6094218 C11.2216192,82.7675508 11.1288261,83.0783487 11.2453494,83.3438167 C11.3618728,83.6092847 11.6534517,83.7513681 11.9343309,83.6795503 C12.5512223,83.5328109 13.1549734,83.3354888 13.7394558,83.0895867 C14.0477925,82.9887859 14.3715069,82.9432246 14.6956885,82.9550012 L14.8263818,82.9613515 C21.0116475,87.6767782 29.4769644,88.048512 36.0517576,83.8934121 C36.2606969,83.759108 36.3410005,83.4928386 36.2411558,83.2654089 C36.1413111,83.0379792 35.8909465,82.9168777 35.6506642,82.9797879 C28.5244342,85.6108038 20.5267588,84.0690319 14.8892703,78.9774582 C12.1864706,75.5012328 11.6676698,70.8006645 13.5473079,66.8186764 C14.1075685,65.0834048 15.8661927,61.3307855 14.7870509,59.2802521 C16.3682764,59.1897091 17.9368012,59.0434473 19.4637418,58.8351164 C22.6590314,58.4133379 25.7960555,57.6298894 28.8144606,56.4998436 C31.5458848,55.7187425 33.9923576,54.1626853 35.8577661,52.0200121 C36.4262335,51.7821075 37.0236054,51.6202461 37.634417,51.5386182 C38.3382668,51.4888979 39.038484,51.676411 39.6232909,52.0712242 C41.4900875,53.7506742 42.8432012,55.9243775 43.5260642,58.340817 C44.3244329,60.7712596 44.2018835,63.410336 43.1817139,65.7563321 C40.6167982,70.1259713 36.4535587,73.3272935 31.5717212,74.6838339 C30.8186982,74.9763576 31.1898836,75.9985515 31.9146376,75.9766327 C38.1920512,75.8062455 43.7489481,71.8718316 45.9948982,66.0074764 C46.8979827,63.2201446 46.6915134,60.191928 45.4184545,57.5529697 Z" id="Shape"></path>
                    <path d="M64.4961988,74.5312218 C64.0716379,72.6309493 62.8802027,70.9908168 61.2042836,69.9995636 C57.9817377,67.9604343 54.2500994,66.8699929 50.4366279,66.8530909 C50.4978757,66.6148275 50.4390439,66.3616667 50.2790068,66.1748276 C50.1189697,65.9879884 49.8778513,65.8909652 49.6330073,65.9148848 C46.8947976,66.128337 45.0300618,69.5445952 43.6184509,71.5310109 C42.519596,73.0223692 41.3252869,74.440979 40.0430255,75.7779297 C38.5217553,77.636847 36.6400058,79.1686559 34.5110921,80.2811139 C34.3156667,80.3653067 34.3908461,80.6783152 34.6067564,80.6088715 C38.2809626,79.3499995 41.4985258,77.0282833 43.8513636,73.9381855 C44.0842764,73.6677855 44.3055127,73.3881673 44.5216279,73.1034279 C45.9592545,73.3467879 47.4304764,73.3932885 48.869537,73.6612303 C50.5232788,73.9705515 52.1497758,74.4156873 53.7738145,74.8479176 C55.9529927,75.4237467 59.3108691,75.8533139 60.60756,77.9470703 C61.9800448,80.1663988 59.5628327,83.4466376 57.9793539,84.8482109 C56.0437053,86.2650275 53.7749449,87.1579114 51.3928606,87.4403636 C48.5173644,87.8735372 45.6088269,88.0480837 42.7021636,87.9619079 C38.9196364,87.9916109 35.1373139,87.8015115 31.3625709,87.5522109 C28.2154836,87.3426509 25.0722885,87.1976182 21.922743,87.0294376 C18.7648841,87.0396709 15.6541449,86.263658 12.871103,84.7713927 C12.3198558,84.4258133 11.87472,85.2722473 12.3833588,85.6358533 C15.0980826,87.4013692 18.2318544,88.4166521 21.4661358,88.5785018 C25.1515648,88.9810291 28.8834945,89.1621152 32.5818291,89.4118255 C39.9003427,90.2760595 47.3051278,90.0828888 54.5686267,88.8382497 C57.086,88.2968488 59.3304318,86.8817421 60.9041806,84.8437042 C62.0370063,83.2833842 62.6475275,81.4048575 62.6484655,79.4766739 C64.0716359,78.2540807 64.7690392,76.3874832 64.4961988,74.5312218 Z M62.1009055,77.0856824 L62.0865661,77.0533164 C61.0059903,74.8534485 57.8951612,74.1817503 55.7821491,73.5645418 C53.8334255,72.9952679 51.8490582,72.4944133 49.8671491,72.0597248 C48.5103966,71.7153091 47.1211958,71.5144782 45.7224497,71.460543 L46.306063,70.6698279 C47.0386012,69.70704 48.3156267,67.7064897 49.6575891,67.5887018 C49.8258884,67.57635 49.9866985,67.5141653 50.1195224,67.4100739 C51.1701903,67.771017 52.1977103,68.2007891 53.2563673,68.5527188 C55.1146232,69.1684865 56.9154205,69.945711 58.6381467,70.8754958 C60.1543192,71.5558514 61.4133815,72.7029461 62.2315988,74.1493842 C62.6192343,75.100129 62.5715586,76.1728686 62.1011103,77.0854776 L62.1009055,77.0856824 Z" id="Shape"></path>
                    <path d="M36.0962097,4.43985455 C33.9053552,-0.132363636 26.2538545,0.209733333 22.2617673,1.64490182 C19.4784893,2.78319038 17.2311901,4.93574776 15.9741479,7.66744727 C15.2866066,9.19006886 14.7751345,10.7862029 14.4496655,12.4248485 C13.9460226,14.0236345 13.5878572,15.6646545 13.379537,17.327897 C13.3522921,17.8494412 14.0264485,17.9063891 14.2749297,17.5556885 C14.9050372,16.4794022 15.3799256,15.319491 15.6855164,14.1103418 C16.1732606,12.6778364 16.6597758,11.2477891 17.2876364,9.8671103 C18.2866695,7.29395184 20.1501047,5.14870917 22.558183,3.79949818 C26.794551,1.67918733 31.848673,2.02964161 35.7518594,4.71435152 C35.9433927,4.8993297 36.2023212,4.65863273 36.0962097,4.43985455 Z" id="Shape"></path>
                    <path d="M30.8760558,43.3280861 C30.599411,44.8723243 29.501664,46.1422792 28.0137079,46.6394618 C26.7106667,47.0696436 25.3387964,47.0342048 24.0294048,47.4131745 C23.7907308,47.4889532 23.6298726,47.7121323 23.6334584,47.9625217 C23.6370441,48.2129111 23.8042272,48.4313924 24.0449733,48.5003055 C25.7912655,48.9264507 27.6335855,48.6889793 29.2147345,47.8339333 C30.7820905,46.9272148 31.7241679,45.2323413 31.6667709,43.4225212 C31.6913527,42.96448 30.9809382,42.8946267 30.8760558,43.3280861 Z" id="Shape"></path>
                    <path d="M40.5295406,48.8469091 C39.8410422,47.6388347 38.7296688,46.728428 37.4096982,46.2912194 C36.0538429,45.8228318 34.5535673,46.0637155 33.4124897,46.9330097 C33.301257,46.9887285 33.3827867,47.180057 33.5005745,47.1335564 C34.7779371,46.7949524 36.1361812,46.9533678 37.3013333,47.5768485 L37.4359188,47.651823 C36.4312546,47.8819945 35.4755593,48.289091 34.6135164,48.8540788 L34.6303139,48.9175818 C35.3631894,48.8908529 36.0931829,48.8113018 36.8146133,48.6795479 C37.3107952,48.557815 37.8265753,48.5384384 38.3304921,48.6226 C38.5381817,48.6636251 38.7378844,48.737917 38.9218897,48.8426073 C39.200896,49.1127796 39.5045767,49.3562454 39.8289588,49.5698194 C40.3185467,49.8785261 40.722303,49.2770909 40.5295406,48.8469091 Z" id="Shape"></path>
                    <path d="M38.5316533,11.4620606 C38.5021401,11.370082 38.4102505,11.3131062 38.3147411,11.3275649 C38.2192317,11.3420237 38.1483238,11.4236448 38.1473576,11.5202376 C38.3097446,13.552367 37.7567982,15.5773494 36.5841588,17.2449333 C35.7805382,18.4394048 34.2224606,19.983143 34.2794085,21.5022994 C34.2851729,21.6421037 34.3727496,21.7653924 34.5028595,21.8168694 C34.6329695,21.8683463 34.7811923,21.8383497 34.8810485,21.7403333 C35.4802946,20.9929625 35.9900748,20.1780705 36.4,19.3122642 C36.944897,18.4723855 37.5037236,17.6402909 37.9877806,16.7629248 C38.9445122,15.1634952 39.1436654,13.2224446 38.5316533,11.4620606 L38.5316533,11.4620606 Z" id="Shape"></path>
                    <path d="M33.6775636,17.3530933 L33.0072994,16.8225358 C32.6898417,16.6345869 32.4162578,16.3809089 32.2049079,16.0785261 C32.0410291,15.7507685 31.5579964,16.0473891 31.7210558,16.3722788 C31.812301,16.6909293 31.8601885,17.0204229 31.8634255,17.3518642 C31.9204104,17.7031345 32.0298609,18.0438466 32.1881103,18.3625867 C32.5672848,19.0936909 33.3721345,19.60868 34.1020097,19.0058109 C34.7011915,18.5125358 34.1241333,17.6882255 33.6775636,17.3530933 Z" id="Shape"></path>
                    <path d="M32.2296945,24.0342267 C31.2449879,24.5375394 29.6486036,25.2856461 28.7837333,24.1843806 C28.3535515,23.6357964 28.1755382,23.1478473 27.5181794,22.8229576 C26.1773087,22.2436833 24.6144155,22.7329368 23.8431976,23.9733867 C22.8399376,25.3197808 22.7082898,27.1257218 23.5056848,28.6033784 C24.3030798,30.0810349 25.8848639,30.9623484 27.5609927,30.8628509 C27.7792916,30.8538791 27.9718515,30.717241 28.0524058,30.5141501 C28.1329602,30.3110593 28.0864109,30.0795805 27.9336121,29.9234158 C27.1080727,28.9774255 25.8785721,28.4390836 25.2070788,27.3628097 C24.3749842,26.0351867 25.4996024,23.6230958 27.1986158,24.61784 C28.1353879,25.1664242 28.4707248,25.8045273 29.649423,25.884623 C30.7501389,25.7364657 31.7468294,25.1568746 32.4199988,24.2734897 C32.471073,24.2172952 32.4738678,24.1323578 32.4265982,24.0729274 C32.3793286,24.0134969 32.2959407,23.9971073 32.2296945,24.0342267 Z" id="Shape"></path>
                </g>
            </g>
        </g>
    </g>
</svg>